<svg width="119" height="40" viewBox="0 0 119 40" fill="none" xmlns="http://www.w3.org/2000/svg">
<rect width="40" height="40" rx="8" fill="url(#paint0_linear_121_46)"/>
<path d="M22.625 15.625C23.3172 15.625 23.9939 15.4197 24.5695 15.0351C25.145 14.6506 25.5936 14.1039 25.8586 13.4644C26.1235 12.8249 26.1928 12.1211 26.0577 11.4422C25.9227 10.7633 25.5893 10.1396 25.0998 9.65013C24.6104 9.16064 23.9867 8.8273 23.3078 8.69225C22.6289 8.5572 21.9251 8.62652 21.2856 8.89142C20.646 9.15633 20.0994 9.60493 19.7148 10.1805C19.3302 10.7561 19.125 11.4328 19.125 12.125C19.125 13.0533 19.4937 13.9435 20.1501 14.5999C20.8065 15.2563 21.6967 15.625 22.625 15.625ZM22.625 10.375C22.9711 10.375 23.3094 10.4776 23.5972 10.6699C23.885 10.8622 24.1093 11.1355 24.2418 11.4553C24.3742 11.7751 24.4089 12.1269 24.3413 12.4664C24.2738 12.8059 24.1072 13.1177 23.8624 13.3624C23.6177 13.6072 23.3058 13.7739 22.9664 13.8414C22.6269 13.9089 22.275 13.8742 21.9553 13.7418C21.6355 13.6093 21.3622 13.385 21.1699 13.0972C20.9776 12.8095 20.875 12.4711 20.875 12.125C20.875 11.6609 21.0593 11.2158 21.3875 10.8876C21.7157 10.5594 22.1608 10.375 22.625 10.375ZM29.987 21.3869C29.9203 21.4175 29.1678 21.7456 27.8356 21.7456C26.3208 21.7456 24.0567 21.3213 21.1976 19.5581C20.7625 20.7935 20.1975 21.9792 19.5122 23.0953C20.7431 23.4743 21.901 24.0589 22.9367 24.8245C25.0225 26.4148 26.125 28.6789 26.125 31.375C26.125 31.6071 26.0328 31.8296 25.8687 31.9937C25.7046 32.1578 25.482 32.25 25.25 32.25C25.0179 32.25 24.7953 32.1578 24.6313 31.9937C24.4672 31.8296 24.375 31.6071 24.375 31.375C24.375 26.8141 20.5808 25.1723 18.4534 24.6102C18.3933 24.6867 18.3309 24.7644 18.2686 24.8398C16.1204 27.443 13.4287 28.797 10.434 28.797C10.0929 28.7986 9.75198 28.7829 9.41247 28.75C9.18041 28.7268 8.96707 28.6124 8.81938 28.4318C8.6717 28.2513 8.60177 28.0196 8.62497 27.7875C8.64818 27.5554 8.76262 27.3421 8.94313 27.1944C9.12363 27.0467 9.35541 26.9768 9.58747 27C12.4225 27.2822 14.8889 26.1808 16.9156 23.7188C18.2817 22.0628 19.2125 20.0427 19.6773 18.5781C15.4204 16.1008 12.7014 18.2095 12.6718 18.2325C12.5827 18.3086 12.4792 18.366 12.3674 18.4014C12.2557 18.4367 12.138 18.4492 12.0213 18.4382C11.9046 18.4272 11.7913 18.3928 11.6882 18.3372C11.585 18.2815 11.4941 18.2057 11.4208 18.1142C11.3475 18.0228 11.2934 17.9175 11.2615 17.8047C11.2297 17.6919 11.2209 17.5739 11.2355 17.4576C11.2502 17.3413 11.2881 17.2291 11.3469 17.1278C11.4058 17.0264 11.4844 16.9379 11.5781 16.8675C11.7422 16.7363 15.649 13.6956 21.3683 17.5861C26.3415 20.9669 29.2356 19.8075 29.2629 19.7944C29.3678 19.7449 29.4814 19.7167 29.5972 19.7115C29.713 19.7063 29.8287 19.7241 29.9376 19.764C30.0464 19.8039 30.1463 19.865 30.2313 19.9438C30.3163 20.0226 30.3849 20.1175 30.4329 20.223C30.481 20.3285 30.5076 20.4425 30.5112 20.5584C30.5148 20.6742 30.4953 20.7897 30.4539 20.898C30.4125 21.0062 30.3501 21.1052 30.2701 21.1892C30.1901 21.2731 30.0943 21.3403 29.9881 21.3869H29.987Z" fill="white"/>
<path d="M49.148 8.4H57.296V11.2H52.228V16.66H56.204V19.46H52.228V28H49.148V8.4ZM58.773 8.4H61.853V28H58.773V8.4ZM66.5677 11.2H63.3477V8.4H72.8677V11.2H69.6477V28H66.5677V11.2ZM74.3589 8.4H78.7549L80.7149 22.428H80.7709L82.7309 8.4H87.1269V28H84.2149V13.16H84.1589L81.9189 28H79.3429L77.1029 13.16H77.0469V28H74.3589V8.4ZM89.4253 8.4H97.8253V11.2H92.5053V16.38H96.7333V19.18H92.5053V25.2H97.8253V28H89.4253V8.4ZM99.5972 8.4H107.997V11.2H102.677V16.38H106.905V19.18H102.677V25.2H107.997V28H99.5972V8.4ZM112.177 11.2H108.957V8.4H118.477V11.2H115.257V28H112.177V11.2Z" fill="url(#paint1_linear_121_46)"/>
<defs>
<linearGradient id="paint0_linear_121_46" x1="20" y1="0" x2="20" y2="40" gradientUnits="userSpaceOnUse">
<stop stop-color="#00BC7D"/>
<stop offset="1" stop-color="#009966"/>
</linearGradient>
<linearGradient id="paint1_linear_121_46" x1="83.5" y1="4" x2="83.5" y2="36" gradientUnits="userSpaceOnUse">
<stop stop-color="#00BC7D"/>
<stop offset="0.7" stop-color="#009966"/>
</linearGradient>
</defs>
</svg>
