<svg width="104" height="121" viewBox="0 0 104 121" fill="none" xmlns="http://www.w3.org/2000/svg">
<path opacity="0.69" fill-rule="evenodd" clip-rule="evenodd" d="M103.23 100.777C93.0319 110.315 80.3593 116.828 66.6318 119.559C52.0832 122.453 37.0032 120.968 23.2987 115.291C14.936 111.827 7.31461 106.897 0.77124 100.778C1.02003 92.0335 3.5057 83.4401 8.06572 75.8476C14.3216 65.4315 24.0748 57.5768 35.585 53.685C30.5109 50.1842 26.6889 45.1529 24.677 39.3258C22.6652 33.4987 22.569 27.1811 24.4023 21.2954C26.2357 15.4097 29.9027 10.2643 34.8678 6.61054C39.8329 2.95675 45.836 0.985962 52.0006 0.985962C58.1652 0.985962 64.1684 2.95675 69.1335 6.61054C74.0986 10.2643 77.7656 15.4097 79.5989 21.2954C81.4323 27.1811 81.336 33.4987 79.3242 39.3258C77.3124 45.1529 73.4904 50.1842 68.4162 53.685C79.9265 57.5768 89.6796 65.4315 95.9355 75.8476C100.495 83.4398 102.981 92.0327 103.23 100.777Z" fill="#1D1E2C"/>
</svg>
