<svg width="143" height="65" viewBox="0 0 143 65" fill="none" xmlns="http://www.w3.org/2000/svg">
<rect y="12.5" width="40" height="40" rx="8" fill="url(#paint0_linear_53_555)"/>
<path d="M22.625 28.125C23.3172 28.125 23.9939 27.9197 24.5695 27.5351C25.1451 27.1506 25.5937 26.6039 25.8586 25.9644C26.1235 25.3249 26.1928 24.6211 26.0578 23.9422C25.9227 23.2633 25.5894 22.6396 25.0999 22.1501C24.6104 21.6606 23.9868 21.3273 23.3078 21.1923C22.6289 21.0572 21.9252 21.1265 21.2856 21.3914C20.6461 21.6563 20.0994 22.1049 19.7149 22.6805C19.3303 23.2561 19.125 23.9328 19.125 24.625C19.125 25.5533 19.4938 26.4435 20.1501 27.0999C20.8065 27.7563 21.6967 28.125 22.625 28.125ZM22.625 22.875C22.9711 22.875 23.3095 22.9776 23.5973 23.1699C23.885 23.3622 24.1093 23.6355 24.2418 23.9553C24.3742 24.2751 24.4089 24.6269 24.3414 24.9664C24.2739 25.3059 24.1072 25.6177 23.8624 25.8624C23.6177 26.1072 23.3059 26.2739 22.9664 26.3414C22.6269 26.4089 22.2751 26.3742 21.9553 26.2418C21.6355 26.1093 21.3622 25.885 21.1699 25.5972C20.9776 25.3095 20.875 24.9711 20.875 24.625C20.875 24.1609 21.0594 23.7158 21.3876 23.3876C21.7158 23.0594 22.1609 22.875 22.625 22.875ZM29.987 33.8869C29.9203 33.9175 29.1678 34.2456 27.8356 34.2456C26.3208 34.2456 24.0567 33.8213 21.1977 32.0581C20.7625 33.2935 20.1975 34.4792 19.5122 35.5953C20.7431 35.9743 21.901 36.5589 22.9367 37.3245C25.0225 38.9148 26.125 41.1789 26.125 43.875C26.125 44.1071 26.0328 44.3296 25.8687 44.4937C25.7046 44.6578 25.4821 44.75 25.25 44.75C25.0179 44.75 24.7954 44.6578 24.6313 44.4937C24.4672 44.3296 24.375 44.1071 24.375 43.875C24.375 39.3141 20.5808 37.6723 18.4534 37.1102C18.3933 37.1867 18.3309 37.2644 18.2686 37.3398C16.1205 39.943 13.4288 41.297 10.4341 41.297C10.093 41.2986 9.75201 41.2829 9.4125 41.25C9.18044 41.2268 8.9671 41.1124 8.81941 40.9318C8.67173 40.7513 8.6018 40.5196 8.625 40.2875C8.64821 40.0554 8.76265 39.8421 8.94316 39.6944C9.12366 39.5467 9.35544 39.4768 9.5875 39.5C12.4225 39.7822 14.8889 38.6808 16.9156 36.2188C18.2817 34.5628 19.2125 32.5427 19.6773 31.0781C15.4205 28.6008 12.7014 30.7095 12.6719 30.7325C12.5827 30.8086 12.4792 30.866 12.3675 30.9014C12.2557 30.9367 12.138 30.9492 12.0213 30.9382C11.9046 30.9272 11.7914 30.8928 11.6882 30.8372C11.5851 30.7815 11.4941 30.7057 11.4208 30.6142C11.3476 30.5228 11.2934 30.4175 11.2616 30.3047C11.2297 30.1919 11.2209 30.0739 11.2356 29.9576C11.2502 29.8413 11.2881 29.7291 11.347 29.6278C11.4058 29.5264 11.4844 29.4379 11.5781 29.3675C11.7422 29.2363 15.6491 26.1956 21.3683 30.0861C26.3416 33.4669 29.2356 32.3075 29.263 32.2944C29.3678 32.2449 29.4814 32.2167 29.5972 32.2115C29.713 32.2063 29.8287 32.2241 29.9376 32.264C30.0465 32.3039 30.1463 32.365 30.2313 32.4438C30.3164 32.5226 30.3849 32.6175 30.433 32.723C30.481 32.8285 30.5076 32.9425 30.5112 33.0584C30.5148 33.1742 30.4954 33.2897 30.454 33.398C30.4126 33.5062 30.3501 33.6052 30.2701 33.6892C30.1901 33.7731 30.0943 33.8403 29.9881 33.8869H29.987Z" fill="white"/>
<path d="M49.148 20.9H57.296V23.7H52.228V29.16H56.204V31.96H52.228V40.5H49.148V20.9ZM58.773 20.9H61.853V40.5H58.773V20.9ZM66.5677 23.7H63.3477V20.9H72.8677V23.7H69.6477V40.5H66.5677V23.7ZM74.3589 20.9H78.7549L80.7149 34.928H80.7709L82.7309 20.9H87.1269V40.5H84.2149V25.66H84.1589L81.9189 40.5H79.3429L77.1029 25.66H77.0469V40.5H74.3589V20.9ZM89.4253 20.9H97.8253V23.7H92.5053V28.88H96.7333V31.68H92.5053V37.7H97.8253V40.5H89.4253V20.9ZM99.5972 20.9H107.997V23.7H102.677V28.88H106.905V31.68H102.677V37.7H107.997V40.5H99.5972V20.9ZM112.177 23.7H108.957V20.9H118.477V23.7H115.257V40.5H112.177V23.7Z" fill="url(#paint1_linear_53_555)"/>
<defs>
<linearGradient id="paint0_linear_53_555" x1="20" y1="12.5" x2="20" y2="52.5" gradientUnits="userSpaceOnUse">
<stop stop-color="#00BC7D"/>
<stop offset="1" stop-color="#009966"/>
</linearGradient>
<linearGradient id="paint1_linear_53_555" x1="83.5" y1="16.5" x2="83.5" y2="48.5" gradientUnits="userSpaceOnUse">
<stop stop-color="#00BC7D"/>
<stop offset="0.7" stop-color="#009966"/>
</linearGradient>
</defs>
</svg>
