<svg width="16" height="17" viewBox="0 0 16 17" fill="none" xmlns="http://www.w3.org/2000/svg">
<g clip-path="url(#clip0_45_511)">
<path d="M12.9417 16.1081L7.99801 13.5078L3.05316 16.1062L3.99852 10.6009L-0.000756621 6.70102L5.52723 5.89887L8.00042 0.890226L10.4716 5.89991L15.9993 6.70425L11.9985 10.6024L12.9417 16.1081Z" fill="#FFCC00"/>
<path d="M10.4883 5.86803C7.98477 9.27604 7.95758 9.31311 7.95758 9.31311L15.9824 6.68524L10.4883 5.86803Z" fill="#FFE680"/>
<path d="M7.99876 9.23987V13.5189L3.00401 16.0823L7.99876 9.23987Z" fill="#FFDD55"/>
<path d="M7.99876 9.23987L12.9097 15.9519L11.988 10.5161L7.99876 9.23987Z" fill="#FFDD55"/>
<path d="M0.031723 6.691L7.99918 9.24002L5.53748 5.87543L0.031723 6.691Z" fill="#FFE680"/>
<path d="M7.99876 9.23986V0.901276L10.4562 5.87353L7.99876 9.23986Z" fill="#FFDD55"/>
<path d="M3.0551 16.0132L3.98279 10.5315L7.99943 9.23987L3.0551 16.0132Z" fill="#FFD42A"/>
</g>
<defs>
<clipPath id="clip0_45_511">
<rect width="16" height="15.2182" fill="white" transform="translate(0 0.8909)"/>
</clipPath>
</defs>
</svg>
